<mxfile host="app.diagrams.net" agent="Mozilla/5.0 (Windows NT 10.0; Win64; x64) AppleWebKit/537.36 (KHTML, like Gecko) Chrome/135.0.0.0 Safari/537.36" version="26.2.10">
  <diagram id="C5RBs43oDa-KdzZeNtuy" name="Page-1">
    <mxGraphModel dx="1044" dy="562" grid="1" gridSize="10" guides="1" tooltips="1" connect="1" arrows="1" fold="1" page="1" pageScale="1" pageWidth="827" pageHeight="1169" math="0" shadow="0">
      <root>
        <mxCell id="WIyWlLk6GJQsqaUBKTNV-0" />
        <mxCell id="WIyWlLk6GJQsqaUBKTNV-1" parent="WIyWlLk6GJQsqaUBKTNV-0" />
        <mxCell id="xoX10SJPyYiXjPKLRnDx-0" value="" style="edgeStyle=orthogonalEdgeStyle;rounded=0;orthogonalLoop=1;jettySize=auto;html=1;" edge="1" parent="WIyWlLk6GJQsqaUBKTNV-1" source="xoX10SJPyYiXjPKLRnDx-1" target="xoX10SJPyYiXjPKLRnDx-5">
          <mxGeometry relative="1" as="geometry" />
        </mxCell>
        <mxCell id="xoX10SJPyYiXjPKLRnDx-1" value="INICIO" style="strokeWidth=2;html=1;shape=mxgraph.flowchart.start_1;whiteSpace=wrap;fillColor=#d5e8d4;strokeColor=#82b366;" vertex="1" parent="WIyWlLk6GJQsqaUBKTNV-1">
          <mxGeometry x="360" y="100" width="100" height="60" as="geometry" />
        </mxCell>
        <mxCell id="xoX10SJPyYiXjPKLRnDx-24" value="" style="edgeStyle=orthogonalEdgeStyle;rounded=0;orthogonalLoop=1;jettySize=auto;html=1;" edge="1" parent="WIyWlLk6GJQsqaUBKTNV-1" source="xoX10SJPyYiXjPKLRnDx-3" target="xoX10SJPyYiXjPKLRnDx-12">
          <mxGeometry relative="1" as="geometry" />
        </mxCell>
        <mxCell id="xoX10SJPyYiXjPKLRnDx-3" value="&lt;div&gt;&lt;br&gt;&lt;/div&gt;QNT-ALUNO" style="html=1;strokeWidth=2;shape=manualInput;whiteSpace=wrap;rounded=1;size=26;arcSize=11;fillColor=#dae8fc;strokeColor=#6c8ebf;" vertex="1" parent="WIyWlLk6GJQsqaUBKTNV-1">
          <mxGeometry x="360" y="280" width="100" height="60" as="geometry" />
        </mxCell>
        <mxCell id="xoX10SJPyYiXjPKLRnDx-23" value="" style="edgeStyle=orthogonalEdgeStyle;rounded=0;orthogonalLoop=1;jettySize=auto;html=1;" edge="1" parent="WIyWlLk6GJQsqaUBKTNV-1" source="xoX10SJPyYiXjPKLRnDx-5" target="xoX10SJPyYiXjPKLRnDx-3">
          <mxGeometry relative="1" as="geometry" />
        </mxCell>
        <mxCell id="xoX10SJPyYiXjPKLRnDx-5" value="QNT-ALUNO = 0&lt;div&gt;VETOR[3]&lt;/div&gt;" style="whiteSpace=wrap;html=1;fillColor=#f5f5f5;strokeColor=#666666;strokeWidth=2;fontColor=#333333;" vertex="1" parent="WIyWlLk6GJQsqaUBKTNV-1">
          <mxGeometry x="350" y="200" width="120" height="40" as="geometry" />
        </mxCell>
        <mxCell id="xoX10SJPyYiXjPKLRnDx-11" value="" style="edgeStyle=orthogonalEdgeStyle;rounded=0;orthogonalLoop=1;jettySize=auto;html=1;" edge="1" parent="WIyWlLk6GJQsqaUBKTNV-1" source="xoX10SJPyYiXjPKLRnDx-12" target="xoX10SJPyYiXjPKLRnDx-14">
          <mxGeometry relative="1" as="geometry" />
        </mxCell>
        <mxCell id="xoX10SJPyYiXjPKLRnDx-12" value="I = 1, I &amp;lt;= 3, I++" style="shape=hexagon;perimeter=hexagonPerimeter2;whiteSpace=wrap;html=1;fixedSize=1;fillColor=#fff2cc;strokeColor=#d6b656;" vertex="1" parent="WIyWlLk6GJQsqaUBKTNV-1">
          <mxGeometry x="330" y="380" width="160" height="40" as="geometry" />
        </mxCell>
        <mxCell id="xoX10SJPyYiXjPKLRnDx-13" style="edgeStyle=orthogonalEdgeStyle;rounded=0;orthogonalLoop=1;jettySize=auto;html=1;exitX=0;exitY=0.5;exitDx=0;exitDy=0;entryX=0;entryY=0.5;entryDx=0;entryDy=0;" edge="1" parent="WIyWlLk6GJQsqaUBKTNV-1" source="xoX10SJPyYiXjPKLRnDx-14" target="xoX10SJPyYiXjPKLRnDx-12">
          <mxGeometry relative="1" as="geometry" />
        </mxCell>
        <mxCell id="xoX10SJPyYiXjPKLRnDx-14" value="VETOR[I] = QNT-ALUNO // 3" style="whiteSpace=wrap;html=1;fillColor=#f5f5f5;strokeColor=#666666;strokeWidth=2;fontColor=#333333;" vertex="1" parent="WIyWlLk6GJQsqaUBKTNV-1">
          <mxGeometry x="327.5" y="470" width="165" height="40" as="geometry" />
        </mxCell>
        <mxCell id="xoX10SJPyYiXjPKLRnDx-26" value="" style="edgeStyle=orthogonalEdgeStyle;rounded=0;orthogonalLoop=1;jettySize=auto;html=1;" edge="1" parent="WIyWlLk6GJQsqaUBKTNV-1" source="xoX10SJPyYiXjPKLRnDx-16" target="xoX10SJPyYiXjPKLRnDx-25">
          <mxGeometry relative="1" as="geometry" />
        </mxCell>
        <mxCell id="xoX10SJPyYiXjPKLRnDx-16" value="" style="verticalLabelPosition=bottom;verticalAlign=top;html=1;shape=mxgraph.flowchart.on-page_reference;fillColor=#f5f5f5;gradientColor=#b3b3b3;strokeColor=#666666;" vertex="1" parent="WIyWlLk6GJQsqaUBKTNV-1">
          <mxGeometry x="395" y="540" width="30" height="30" as="geometry" />
        </mxCell>
        <mxCell id="xoX10SJPyYiXjPKLRnDx-17" style="edgeStyle=orthogonalEdgeStyle;rounded=0;orthogonalLoop=1;jettySize=auto;html=1;exitX=1;exitY=0.5;exitDx=0;exitDy=0;entryX=1;entryY=0.5;entryDx=0;entryDy=0;entryPerimeter=0;" edge="1" parent="WIyWlLk6GJQsqaUBKTNV-1" source="xoX10SJPyYiXjPKLRnDx-12" target="xoX10SJPyYiXjPKLRnDx-16">
          <mxGeometry relative="1" as="geometry" />
        </mxCell>
        <mxCell id="xoX10SJPyYiXjPKLRnDx-18" value="FIM" style="strokeWidth=2;html=1;shape=mxgraph.flowchart.start_1;whiteSpace=wrap;fillColor=#d5e8d4;strokeColor=#82b366;" vertex="1" parent="WIyWlLk6GJQsqaUBKTNV-1">
          <mxGeometry x="360" y="930" width="100" height="60" as="geometry" />
        </mxCell>
        <mxCell id="xoX10SJPyYiXjPKLRnDx-29" value="" style="edgeStyle=orthogonalEdgeStyle;rounded=0;orthogonalLoop=1;jettySize=auto;html=1;" edge="1" parent="WIyWlLk6GJQsqaUBKTNV-1" source="xoX10SJPyYiXjPKLRnDx-25" target="xoX10SJPyYiXjPKLRnDx-28">
          <mxGeometry relative="1" as="geometry" />
        </mxCell>
        <mxCell id="xoX10SJPyYiXjPKLRnDx-30" value="S" style="edgeLabel;html=1;align=center;verticalAlign=middle;resizable=0;points=[];" vertex="1" connectable="0" parent="xoX10SJPyYiXjPKLRnDx-29">
          <mxGeometry x="-0.384" y="3" relative="1" as="geometry">
            <mxPoint as="offset" />
          </mxGeometry>
        </mxCell>
        <mxCell id="xoX10SJPyYiXjPKLRnDx-25" value="&lt;div&gt;&lt;br&gt;&lt;/div&gt;&lt;div&gt;&lt;br&gt;&lt;/div&gt;QNT-ALUNO % 3 &amp;lt;&amp;gt; 0" style="rhombus;whiteSpace=wrap;html=1;verticalAlign=top;fillColor=#ffe6cc;strokeColor=#d79b00;" vertex="1" parent="WIyWlLk6GJQsqaUBKTNV-1">
          <mxGeometry x="360" y="600" width="100" height="100" as="geometry" />
        </mxCell>
        <mxCell id="xoX10SJPyYiXjPKLRnDx-28" value="VETOR[-1] = VETOR[-1] + QNT-ALUNO%3" style="whiteSpace=wrap;html=1;fillColor=#f5f5f5;strokeColor=#666666;strokeWidth=2;fontColor=#333333;" vertex="1" parent="WIyWlLk6GJQsqaUBKTNV-1">
          <mxGeometry x="280" y="750" width="260" height="40" as="geometry" />
        </mxCell>
        <mxCell id="xoX10SJPyYiXjPKLRnDx-35" value="" style="edgeStyle=orthogonalEdgeStyle;rounded=0;orthogonalLoop=1;jettySize=auto;html=1;" edge="1" parent="WIyWlLk6GJQsqaUBKTNV-1" source="xoX10SJPyYiXjPKLRnDx-31" target="xoX10SJPyYiXjPKLRnDx-18">
          <mxGeometry relative="1" as="geometry" />
        </mxCell>
        <mxCell id="xoX10SJPyYiXjPKLRnDx-31" value="" style="verticalLabelPosition=bottom;verticalAlign=top;html=1;shape=mxgraph.flowchart.on-page_reference;fillColor=#f5f5f5;gradientColor=#b3b3b3;strokeColor=#666666;" vertex="1" parent="WIyWlLk6GJQsqaUBKTNV-1">
          <mxGeometry x="395" y="830" width="30" height="30" as="geometry" />
        </mxCell>
        <mxCell id="xoX10SJPyYiXjPKLRnDx-32" style="edgeStyle=orthogonalEdgeStyle;rounded=0;orthogonalLoop=1;jettySize=auto;html=1;exitX=0.5;exitY=1;exitDx=0;exitDy=0;entryX=0.5;entryY=0;entryDx=0;entryDy=0;entryPerimeter=0;" edge="1" parent="WIyWlLk6GJQsqaUBKTNV-1" source="xoX10SJPyYiXjPKLRnDx-28" target="xoX10SJPyYiXjPKLRnDx-31">
          <mxGeometry relative="1" as="geometry" />
        </mxCell>
        <mxCell id="xoX10SJPyYiXjPKLRnDx-33" style="edgeStyle=orthogonalEdgeStyle;rounded=0;orthogonalLoop=1;jettySize=auto;html=1;exitX=1;exitY=0.5;exitDx=0;exitDy=0;entryX=1;entryY=0.5;entryDx=0;entryDy=0;entryPerimeter=0;" edge="1" parent="WIyWlLk6GJQsqaUBKTNV-1" source="xoX10SJPyYiXjPKLRnDx-25" target="xoX10SJPyYiXjPKLRnDx-31">
          <mxGeometry relative="1" as="geometry">
            <Array as="points">
              <mxPoint x="570" y="650" />
              <mxPoint x="570" y="845" />
            </Array>
          </mxGeometry>
        </mxCell>
        <mxCell id="xoX10SJPyYiXjPKLRnDx-34" value="N" style="edgeLabel;html=1;align=center;verticalAlign=middle;resizable=0;points=[];" vertex="1" connectable="0" parent="xoX10SJPyYiXjPKLRnDx-33">
          <mxGeometry x="-0.7636" y="1" relative="1" as="geometry">
            <mxPoint as="offset" />
          </mxGeometry>
        </mxCell>
      </root>
    </mxGraphModel>
  </diagram>
</mxfile>
